<svg version="1" xmlns="http://www.w3.org/2000/svg" width="346.667" height="346.667" viewBox="0 0 260.000000 260.000000"><path d="M21.6 12.8c-.4.3-.6 9.9-.6 21.4V55h83.9l-.4 58.2c-.2 32.1-.4 59-.5 59.8-1.9 14.4-7.1 24.4-15.1 28.5-6.6 3.4-20.2 3.8-28 .7-4.1-1.6-9.9-8.1-12.7-14.2-2.2-4.7-2.7-7.2-3-17.8l-.4-12.2H-.3l.6 13.7c1.2 29.1 11.3 49.6 31.2 63.2 14.7 10 25.4 13 45 12.5 15.5-.3 17.2-.6 26.1-3.9 8.4-3.2 13.8-6.3 20.9-12 4.4-3.6 5.7-4.2 6.7-3.2 3.7 3.7 13.1 9.9 18.8 12.6 10.7 5 17.2 6.3 32.5 6.6 26.4.6 42.8-4.8 56.5-18.6 13.1-13.1 20.3-32.6 21.6-59l.5-10.5-22.5-.1-22.6-.1-.1 5.7c-.1 17.8-4.1 28.6-12.4 34.2-15 10.1-37.6 5.8-46-8.6-4.6-7.7-5.1-14.2-4.9-63.5.2-25 .4-46.2.7-47 .2-.8.7-2.9 1.2-4.5 3.3-12.8 17.4-21.5 32.9-20.3 17.6 1.4 28.1 14.2 28.5 34.7.1 4.1.4 7.7.6 8 .2.3 10.1.6 22.2.6h21.8l-.1-5.5c-.8-41.6-21.1-70.7-54.9-78.6-6.2-1.5-17.5-1.7-94.7-1.9-48.2-.2-87.9 0-88.2.3z"/></svg>