<svg xmlns="http://www.w3.org/2000/svg" style="fill: #FFF;" viewBox="0 0 32 31.22">
    <title>GH</title>
    <path d="M16,0a16,16,0,0,0-5.1,31.2c.8.1,1.1-.3,1.1-.8v-3c-4,.7-5.1-1-5.4-1.9A6.85,6.85,0,0,0,5,23.2c-.6-.3-1.4-1,0-1.1a3.44,3.44,0,0,1,2.5,1.6c1.4,2.4,3.7,1.7,4.7,1.3a3.45,3.45,0,0,1,1-2.1c-3.6-.4-7.3-1.8-7.3-7.9a6.33,6.33,0,0,1,1.6-4.3,5.42,5.42,0,0,1,.2-4.2S9,6.1,12.1,8.1a13.31,13.31,0,0,1,4-.5,17.52,17.52,0,0,1,4,.5c3.1-2.1,4.4-1.6,4.4-1.6a6,6,0,0,1,.2,4.2A6.15,6.15,0,0,1,26.3,15c0,6.1-3.7,7.5-7.3,7.9a3.82,3.82,0,0,1,1.1,3v4.4c0,.4.3.9,1.1.8A15.86,15.86,0,0,0,32,16,16,16,0,0,0,16,0Z"/>
</svg>