<svg xmlns="http://www.w3.org/2000/svg" style="fill: #FFF;" viewBox="0 0 577.06 618.41">
    <title>GPlus</title>
    <path d="M214.63,366.41c-8.93-13.14-16.78-26.18-20.59-41.24-4-15.64,1.49-29.87,6.77-44.78-3.14,0-5.55-.15-7.94,0-35.7,2.69-69-4.72-98.79-24.89C62.43,234.07,46,203.38,41.86,165.72,34.32,96.91,83.37,32.91,144.71,12.58A221.06,221.06,0,0,1,211.36,1C270.67.15,330,.29,389.36.08a26.11,26.11,0,0,1,3.73.5l.69,1.7C379,11,364.68,20.87,349.15,28.06c-16.28,7.54-34.16,2-52.43,2,1.55,1.42,2.35,2.27,3.27,3,27.5,21,42.5,49.49,48.29,83,5.34,31,1.75,61-14.76,88.2-6.22,10.27-14.74,19.26-22.88,28.22-7.6,8.38-16.38,15.68-24.08,24A100.24,100.24,0,0,0,273.43,274c-8.21,14.09-7.67,28.52,2.82,41,7.43,8.82,16.44,16.47,25.48,23.73,16.87,13.58,34.08,26.63,48.34,43.23,30.57,35.59,36.72,75.54,21.57,119.06-15.29,44-45.68,74.4-87.34,94-39,18.32-80.3,24.34-123,23.26-32.94-.83-65-5.89-95-20.1-22-10.4-40.94-24.68-53.18-46.11-18.76-32.83-16.31-66,.44-98.79,13.9-27.16,36.72-44.73,63.65-57.66,26.21-12.59,54-19.87,82.65-23.78,16.64-2.27,33.44-3.31,50.17-4.9C211.28,366.8,212.55,366.64,214.63,366.41ZM216,581.76c4.39-.3,10.38-.54,16.34-1.12,20.12-1.94,39.53-6.6,56.53-18,24.58-16.48,38.65-39.18,37.95-69.49-.34-14.89-6.14-28.22-14.39-40.41-15.31-22.6-36-39.36-58.27-54.77-13-9-27.06-11.88-42.15-10.53-15.39,1.39-30.81,3.16-46,5.9-22.14,4-43.23,11.12-61.31,25.18C73.58,442.73,64.49,480.35,81.22,516a97,97,0,0,0,46.87,47.41c27.17,13.05,56.39,17.49,87.9,18.34Zm65.17-410.58c.46-14.24-2.12-29.63-6.27-44.78-6.82-24.9-15.92-48.78-32.52-69.05-17.87-21.83-40.81-32.3-69.08-29-29.28,3.39-47,20.94-55.75,48.21-6.93,21.56-6.71,43.64-3.06,65.71,5.08,30.77,16.3,59,36.54,83.09,15.76,18.76,34.91,31.67,60.45,32.75,29.93,1.26,52.15-13.24,62.73-41.25C279.53,202.61,281.41,187.84,281.16,171.18Z"/>
    <path d="M453,164.65c0-11.67-.19-23.34.09-35,.11-4.36-1.13-5.69-5.59-5.65-23.49.21-47,0-70.48.18-4.45,0-6.23-1.13-6.08-5.88.32-10.15.33-20.33,0-30.48-.15-4.79,1.7-5.93,6.09-5.91,23,.15,46,.08,69,.07,7,0,7,0,7-7.18,0-22.83.12-45.66-.1-68.49-.05-4.8,1.4-6.43,6.21-6.3,10,.29,20,.26,30,0,4.49-.11,6.1,1.34,6.06,6-.19,23-.09,46-.08,69,0,7,0,7,6.83,7,22.83,0,45.66.12,68.49-.09,4.9,0,6.83,1.23,6.65,6.41-.36,10.15-.24,20.33,0,30.49.07,4.14-1.46,5.41-5.55,5.38-23.5-.16-47,0-70.49-.17-4.61,0-6,1.35-6,5.92.19,23.16.1,46.32.08,69.48,0,6.62-.06,6.64-6.72,6.64-10.16,0-20.33-.1-30.49.06-3.69.06-5-1.29-4.92-5C453.06,189,453,176.81,453,164.65Z"/>
</svg>