<svg xmlns="http://www.w3.org/2000/svg" style="fill: #FFF;" viewBox="0 0 57.89 52.5">
    <title>Logo</title>
    <path d="M48,33.34q0,5.53-1.83,7.59a6.74,6.74,0,0,1-5.29,2,9.26,9.26,0,0,1-2.56-.36A5.72,5.72,0,0,1,36,41.31a6.38,6.38,0,0,1-1.62-2.41,10,10,0,0,1-.61-3.74v-18a9.61,9.61,0,0,1,.61-3.64A6.49,6.49,0,0,1,36,11.2a6.06,6.06,0,0,1,2.27-1.3,8.56,8.56,0,0,1,2.56-.4,9.19,9.19,0,0,1,2.55.36,5.72,5.72,0,0,1,2.31,1.34,6.67,6.67,0,0,1,1.65,2.73A14.13,14.13,0,0,1,48,18.5v.72h9.94q0-8.85-4.28-14T40.83,0H4.7V9.5H23.4v22A29.28,29.28,0,0,1,23,37.11a10.09,10.09,0,0,1-1.26,3.45,4.22,4.22,0,0,1-2.09,1.75,8,8,0,0,1-2.92.48,8.94,8.94,0,0,1-2.41-.29,5.06,5.06,0,0,1-2.12-1.21,6.63,6.63,0,0,1-1.55-2.38A10.29,10.29,0,0,1,10,35.06V32.4H0v2.27A21.17,21.17,0,0,0,1.19,41.9a16.89,16.89,0,0,0,3.38,5.6,15,15,0,0,0,5.26,3.67A17.62,17.62,0,0,0,16.7,52.5a17.79,17.79,0,0,0,6.8-1.29,14.82,14.82,0,0,0,5.11-3.49,15.58,15.58,0,0,0,5.23,3.47,17.83,17.83,0,0,0,7,1.31q8.7,0,12.88-5t4.18-14.79H48Z"/>
</svg>