<svg xmlns="http://www.w3.org/2000/svg" style="fill: #FFF;" viewBox="0 0 430.1 296.4">
    <title>Twitter</title>
    <path d="M381.4,131.8c24.2-2,40.5-13,46.8-27.9-8.7,5.4-35.8,11.2-50.7,5.6q-1-5.25-2.4-9.9c-11.4-41.8-50.4-75.5-91.2-71.4,3.3-1.3,6.7-2.6,10-3.7,4.5-1.6,30.9-5.9,26.7-15.2-3.5-8.2-35.7,6.2-41.8,8.1,8-3,21.3-8.2,22.7-17.4a64.13,64.13,0,0,0-33.6,15.9,23.17,23.17,0,0,0,6.5-12.8c-32.7,21.1-51.8,63.2-67.3,104.1C195,95.4,184.2,86.2,174.5,81,147.4,66.5,115,51.3,64.1,32.4c-1.6,16.8,8.3,39.2,36.8,54.1-6.2-.8-17.5,1-26.5,3.2,3.7,19.3,15.7,35.2,48.2,42.8-14.8,1-22.5,4.4-29.5,11.6,6.8,13.4,23.3,29.2,53,25.9-33,14.2-13.5,40.6,13.4,36.6-45.8,47.5-118,44-159.5,4.4,108.3,147.6,343.7,87.3,378.8-54.9,26.3.2,41.7-9.1,51.3-19.4C415,139.3,393,136.7,381.4,131.8Z"/>
</svg>